<svg width="308" height="155" viewBox="0 0 308 155" fill="none" xmlns="http://www.w3.org/2000/svg">
<path fill-rule="evenodd" clip-rule="evenodd" d="M136.889 155C122.379 155 109.935 146.153 104.663 133.56C102.538 133.885 100.354 134.054 98.127 134.054C83.6425 134.054 71.0136 126.899 64.3602 116.299C57.5582 122.938 47.9784 127.072 37.3651 127.072C16.7289 127.072 0 111.442 0 92.1622C0 80.1704 6.4716 69.5908 16.3298 63.3058C14.7971 59.2031 13.9683 54.8214 13.9683 50.2703C13.9683 27.134 35.3875 8.37838 61.8095 8.37838C72.0184 8.37838 81.4805 11.1784 89.2488 15.9492C95.3035 6.40972 106.552 0 119.429 0C129.276 0 138.172 3.74914 144.521 9.78018C147.638 8.86777 150.937 8.37838 154.349 8.37838C165.364 8.37838 175.187 13.4762 181.587 21.4404C187.988 13.4762 197.811 8.37838 208.825 8.37838C217.327 8.37838 225.119 11.4153 231.175 16.4633C237.231 11.4153 245.022 8.37838 253.524 8.37838C271.623 8.37838 286.506 22.1437 288.27 39.7733C299.947 45.4214 308 57.3786 308 71.2162C308 90.4964 292.366 106.126 273.079 106.126C271.443 106.126 269.832 106.014 268.256 105.796C265.149 121.895 250.979 134.054 233.968 134.054C222.502 134.054 212.327 128.529 205.96 119.998C200.593 132.376 188.26 141.036 173.905 141.036C171.027 141.036 168.23 140.688 165.555 140.032C159.245 149.08 148.759 155 136.889 155Z" fill="#4A4A69" fill-opacity="0.84"/>
</svg>
